HIERARCHY
ROOT Hips
{
	OFFSET -0.001795 -0.223333 0.028219
	CHANNELS 6 Xposition Yposition Zposition Zrotation Yrotation Xrotation 
	JOINT LeftUpLeg
	{
		OFFSET 0.069520 -0.091406 -0.006815
		CHANNELS 3 Zrotation Yrotation Xrotation
		JOINT LeftLeg
		{
			OFFSET 0.034277 -0.375199 -0.004496
			CHANNELS 3 Zrotation Yrotation Xrotation
			JOINT LeftFoot
			{
				OFFSET -0.013596 -0.397961 -0.043693
				CHANNELS 3 Zrotation Yrotation Xrotation
				JOINT LeftToe
				{
					OFFSET 0.026358 -0.055791 0.119288
					CHANNELS 3 Zrotation Yrotation Xrotation
					End Site
					{
						OFFSET 0.000000 0.000000 0.000000
					}
				}
			}
		}
	}
	JOINT RightUpLeg
	{
		OFFSET -0.067670 -0.090522 -0.004320
		CHANNELS 3 Zrotation Yrotation Xrotation
		JOINT RightLeg
		{
			OFFSET -0.038290 -0.382569 -0.008850
			CHANNELS 3 Zrotation Yrotation Xrotation
			JOINT RightFoot
			{
				OFFSET 0.015774 -0.398415 -0.042312
				CHANNELS 3 Zrotation Yrotation Xrotation
				JOINT RightToe
				{
					OFFSET -0.025372 -0.048144 0.123348
					CHANNELS 3 Zrotation Yrotation Xrotation
					End Site
					{
						OFFSET 0.000000 0.000000 0.000000
					}
				}
			}
		}
	}
	JOINT Spine
	{
		OFFSET -0.002533 0.108963 -0.026696
		CHANNELS 3 Zrotation Yrotation Xrotation
		JOINT Spine1
		{
			OFFSET 0.005487 0.135180 0.001092
			CHANNELS 3 Zrotation Yrotation Xrotation
			JOINT Spine2
			{
				OFFSET 0.001457 0.052922 0.025425
				CHANNELS 3 Zrotation Yrotation Xrotation
				JOINT Neck
				{
					OFFSET -0.002778 0.213870 -0.042857
					CHANNELS 3 Zrotation Yrotation Xrotation
					JOINT Head
					{
						OFFSET 0.005152 0.064970 0.051349
						CHANNELS 3 Zrotation Yrotation Xrotation
						End Site
						{
							OFFSET 0.000000 0.000000 0.000000
						}
					}
				}
				JOINT LeftShoulder
				{
					OFFSET 0.078845 0.121749 -0.034090
					CHANNELS 3 Zrotation Yrotation Xrotation
					JOINT LeftArm
					{
						OFFSET 0.090977 0.030469 -0.008868
						CHANNELS 3 Zrotation Yrotation Xrotation
						JOINT LeftForeArm
						{
							OFFSET 0.259612 -0.012772 -0.027456
							CHANNELS 3 Zrotation Yrotation Xrotation
							JOINT LeftHand
							{
								OFFSET 0.249234 0.008986 -0.001171
								CHANNELS 3 Zrotation Yrotation Xrotation
								End Site
								{
									OFFSET 0.000000 0.000000 0.000000
								}
							}
						}
					}
				}
				JOINT RightShoulder
				{
					OFFSET -0.081759 0.118833 -0.038615
					CHANNELS 3 Zrotation Yrotation Xrotation
					JOINT RightArm
					{
						OFFSET -0.096012 0.032551 -0.009143
						CHANNELS 3 Zrotation Yrotation Xrotation
						JOINT RightForeArm
						{
							OFFSET -0.253742 -0.013329 -0.021401
							CHANNELS 3 Zrotation Yrotation Xrotation
							JOINT RightHand
							{
								OFFSET -0.255298 0.007772 -0.005559
								CHANNELS 3 Zrotation Yrotation Xrotation
								End Site
								{
									OFFSET 0.000000 0.000000 0.000000
								}
							}
						}
					}
				}
			}
		}
	}
}
MOTION
Frames: 6
Frame Time: 0.050000
0.891054 0.926819 0.033137 -3.761800 -16.739208 3.262977 5.255294 -0.163243 -6.424754 -1.650754 0.357992 11.036410 4.822346 10.426911 -0.478348 0.000000 0.000000 0.000000 -6.117799 1.294809 -14.982913 6.413771 0.136047 22.609439 2.469015 8.219799 -1.740487 0.000000 0.000000 0.000000 7.951428 -0.595127 5.099805 -2.459671 1.323286 2.112633 -1.983561 7.997129 9.180861 9.086294 -2.723156 -27.145158 0.000000 0.000000 0.000000 -27.086017 -11.492000 4.907762 -38.563830 -9.684070 -2.063558 -37.465552 -58.148844 24.185375 0.000000 0.000000 0.000000 26.729085 4.050749 -0.027895 54.691137 8.173870 -2.036202 -1.785261 44.262937 1.074813 0.000000 0.000000 0.000000 
0.908501 0.931898 0.035609 -4.101170 -14.600704 3.591172 4.390103 -0.219786 -5.266314 -1.148175 0.134749 7.478922 3.895730 8.470442 0.410457 0.000000 0.000000 0.000000 -3.891825 1.372772 -14.815670 8.003333 -0.469093 20.921787 3.277045 5.838810 3.046289 0.000000 0.000000 0.000000 8.793232 -0.552910 4.145612 -1.981086 1.066490 2.168046 -2.825965 9.109963 8.075776 9.883021 -2.884438 -26.601390 0.000000 0.000000 0.000000 -26.327648 -12.475659 4.511328 -40.182633 -6.335241 -2.781513 -35.407304 -55.764397 21.297965 0.000000 0.000000 0.000000 28.147183 2.892938 0.067466 52.811419 8.218917 -2.155036 -2.110834 40.548947 1.123037 0.000000 0.000000 0.000000 
0.922675 0.934652 0.038173 -3.675561 -12.605645 3.527533 3.533770 -0.243053 -4.324997 -1.743020 0.213558 4.985635 2.906070 6.471132 1.170758 0.000000 0.000000 0.000000 -2.451651 1.302377 -13.522618 6.988568 -0.421507 18.271071 3.359632 3.745385 6.024371 0.000000 0.000000 0.000000 9.130789 -0.486426 3.323021 -2.212627 1.164614 2.145366 -3.090077 8.264159 7.346794 9.924079 -2.993535 -25.761343 0.000000 0.000000 0.000000 -26.711322 -11.014231 3.455436 -41.381945 -4.486417 -3.363121 -31.053135 -51.715388 17.198632 0.000000 0.000000 0.000000 28.286306 2.409149 -0.187839 52.488297 7.228145 -2.529221 -2.198998 38.250243 1.007315 0.000000 0.000000 0.000000 
0.933542 0.935911 0.040789 -3.219551 -10.753488 2.811853 2.714384 -0.175261 -2.581544 -2.132277 0.265083 2.646989 1.942405 4.575807 1.643503 0.000000 0.000000 0.000000 -1.791693 1.124778 -11.650313 5.358961 -0.208283 16.207602 0.807424 -1.889692 6.084441 0.000000 0.000000 0.000000 9.308573 -0.493763 3.394195 -1.824383 0.932434 1.609854 -4.042952 8.122395 6.956837 9.925867 -3.076589 -24.542322 0.000000 0.000000 0.000000 -26.453585 -11.163095 3.143078 -42.421786 -2.975674 -3.807944 -27.192418 -46.528175 13.343778 0.000000 0.000000 0.000000 28.848821 1.064724 -0.713587 52.753382 6.377006 -2.998851 -0.978659 36.886039 1.444925 0.000000 0.000000 0.000000 
0.940695 0.936525 0.043154 -2.989713 -9.705940 2.663329 2.163254 -0.109822 -1.433018 -2.286841 0.291954 0.682415 1.348310 3.478730 2.099111 0.000000 0.000000 0.000000 -0.840336 1.015211 -10.234047 2.511286 0.289689 14.359686 0.338788 -2.627343 5.661458 0.000000 0.000000 0.000000 9.228513 -0.386824 2.469686 -1.775024 0.896438 1.498763 -4.414783 7.716587 7.046322 9.840406 -3.118813 -23.932355 0.000000 0.000000 0.000000 -25.861910 -10.597530 2.742521 -43.903872 -2.276099 -4.193815 -22.633089 -41.083075 9.842313 0.000000 0.000000 0.000000 28.494009 0.077129 -1.266510 54.026291 5.336151 -3.523831 -0.259662 34.675039 1.575774 0.000000 0.000000 0.000000 
0.944664 0.937025 0.045009 -2.758540 -8.802792 2.229599 1.740494 -0.026246 -0.296171 -2.309231 0.302058 -0.620943 0.828435 2.541960 2.482505 0.000000 0.000000 0.000000 -0.194545 0.854772 -8.531203 0.544123 0.566177 12.489232 -0.001734 -3.220824 5.476367 0.000000 0.000000 0.000000 8.934678 -0.326940 2.069526 -1.534113 0.758502 0.938659 -4.660521 7.417416 7.336898 9.470302 -3.005520 -23.383635 0.000000 0.000000 0.000000 -25.634085 -10.385564 2.567233 -44.558177 -2.032734 -4.361990 -18.925884 -36.368901 7.376089 0.000000 0.000000 0.000000 28.350955 -0.737668 -1.723892 54.324667 4.535823 -3.927320 0.930514 33.015121 1.826926 0.000000 0.000000 0.000000 
